<?xml version="1.0" encoding="utf-8"?>
<!-- Generator: Adobe Illustrator 27.1.1, SVG Export Plug-In . SVG Version: 6.00 Build 0)  -->
<svg version="1.0" id="Layer_1" xmlns="http://www.w3.org/2000/svg" xmlns:xlink="http://www.w3.org/1999/xlink" x="0px" y="0px"
	 viewBox="0 0 1000 1000" style="enable-background:new 0 0 1000 1000;" xml:space="preserve">
<style type="text/css">
	.st0{fill:#FFFFFF;}
</style>
<path class="st0" d="M771.2,585c11-5.6,21.7,8,13.7,17.3c-48.1,55.6-119.1,90.8-198.4,90.8c-97.3,0-182.2-53-227.4-131.6
	c-6.3-10.9,7.2-22.2,16.9-14.3c58,47.5,138.2,76.9,226.7,76.9C664.5,624.2,722.2,609.8,771.2,585z"/>
<path class="st0" d="M892.4,446.5C892.4,446.4,892.4,446.5,892.4,446.5C855,513.9,780.5,565,689.8,582.5
	c-22.4,4.3-45.7,6.6-69.8,6.6c-16.3,0-32.3-1.1-47.9-3.1c-193.7-27.3-300.1-212.7-287.8-260.6c-103.5,54.6-72.5,253.9-109.1,270.6
	c-21.2-28.9-36.7-96.2-36.7-138.8c0-127.4,101-231.2,227.3-235.7c2.8-0.1,5.7-0.2,8.6-0.2l5.2,0c-7.1,19.6-11.2,40.3-11.9,61.7
	c-0.1,2.1-0.1,4.2-0.1,6.3c0,115.1,99.6,211.3,232.9,235.4c21,3.8,43,5.8,65.4,5.8c9.9,0,19.7-0.4,29.3-1.2
	C774,523.2,843.7,492.3,892.4,446.5z"/>
</svg>
